<?xml version="1.0" encoding="utf-8"?>
<!-- Generator: Adobe Illustrator 16.0.0, SVG Export Plug-In . SVG Version: 6.00 Build 0)  -->
<!DOCTYPE svg PUBLIC "-//W3C//DTD SVG 1.1//EN" "http://www.w3.org/Graphics/SVG/1.1/DTD/svg11.dtd">
<svg version="1.1" id="Layer_1" xmlns="http://www.w3.org/2000/svg" xmlns:xlink="http://www.w3.org/1999/xlink" x="0px" y="0px"
	 width="1008px" height="1008px" viewBox="0 0 1008 1008" enable-background="new 0 0 1008 1008" xml:space="preserve">
<path fill="#FFFFFF" stroke="#000000" stroke-width="10" stroke-miterlimit="10" d="M895,503.6c0,158.05-93.73,294.22-228.64,355.95
	c-6.141,2.811-12.36,5.46-18.67,7.96c-35.75,14.15-74.08,23.19-114.101,26.21c0,0-0.01,0-0.02,0c-9.84,0.74-19.79,1.12-29.82,1.12
	c-16.28,0-32.32-0.99-48.08-2.93h-0.03c-50.52-6.19-98.06-22.021-140.73-45.58c-7.1-3.92-14.06-8.05-20.88-12.4
	C184.9,764.52,112.5,642.51,112.5,503.6c0-216.08,175.17-391.25,391.25-391.25S895,287.52,895,503.6z"/>
<g>
	<g>
		<path d="M716.2,498.04c-2.48,8.26-14.03,9.5-18.99,16.1l-0.07-0.069l-0.76-0.75c-3.72,4.96,2.07,11.56,2.9,16.93
			c0.819,6.62-1.24,10.33-4.96,15.7c-3.71,5.359-7.431,5.359-14.46,7.02c-4.54,1.24-14.45,2.061-8.67,9.49l-0.41,0.83
			c12.8,14.46-9.09,25.19-10.74,39.24l0.59-1.761c-2.75,19.021-0.99,32.021-21.79,40.99c-17.68,7.41-33.74,19.33-51.83,25.53
			l0.34-0.33c-7.01,4.12-5.77,32.21-5.77,39.65c0,13.21-1.24,28.489,2.88,40.88l-0.83-2.33c-0.01-0.01-0.02-0.03-0.01-0.04
			l-1.23-3.41c3.721,18.17,11.98,35.93,20.25,52.44c9.08,18.59,19.82,38.83,32.62,54.939c4.44,5.91,8.561,12.09,12.431,18.42
			c-35.75,14.15-74.08,23.19-114.101,26.21c0,0-0.01,0-0.02,0c-9.84,0.74-19.79,1.12-29.82,1.12c-16.28,0-32.32-0.99-48.08-2.93
			h-0.03c-50.52-6.19-98.06-22.021-140.73-45.58c-7.1-3.92-14.06-8.05-20.88-12.4c2.57-9.17,4.96-18.37,7.53-27.39
			c2.89-9.91,8.68-18.99,11.15-28.9c2.07-8.67,2.48-18.18,4.55-27.26l-1.24-0.42c0.41-4.13-2.9-8.25-3.31-13.21
			c-0.4-4.54,0.41-9.09,2.48-12.81c4.96-9.08,9.5-17.351,14.04-26.431c2.07-4.54,1.24-11.149,4.14-14.859
			c2.88-4.131,7.84-3.311,10.32-9.511c3.72-10.319,4.55-15.27,13.63-21.47c3.69-2.45,11.02-7.36,11.95-11.46
			c0.28,0.25,0.51,0.35,0.7,0.31c1.65,0.25,1.06-7.289,1.81-9.5c0.41-2.06,2.47-3.72,2.88-5.779c0.41-2.48-0.41-4.54,0.41-7.021
			c2.48-8.68,12.81-14.46,16.11-21.47c7.43-15.29-8.67-32.22-13.21-45.03c-0.11-0.3-0.22-0.66-0.33-1.069
			c-0.06-0.25-0.14-0.551-0.21-0.86c-0.08-0.31-0.15-0.63-0.24-0.97c-0.15-0.67-0.32-1.391-0.49-2.13c-0.1-0.37-0.19-0.74-0.29-1.12
			c-0.46-1.681-1.03-3.36-1.8-4.67c-0.34-0.58-0.73-1.091-1.16-1.48c-0.11-0.11-0.24-0.2-0.35-0.29c-0.23-0.17-0.47-0.31-0.72-0.42
			c-0.39-0.16-0.81-0.25-1.26-0.25h-0.07c-0.08,0-0.15,0.021-0.22,0.021c-0.09,0-0.19,0.01-0.29,0.02
			c-0.84-6.19-6.2-11.97-9.91-15.28c-2.48-2.47-3.31-1.239-4.96-5.359c-0.74-2.57,1.14-5.801-1.65-5.891
			c-0.22-0.02-0.47-0.01-0.77,0.03c-0.14,0.01-0.31,0.04-0.48,0.06c-1.66-2.46-4.53-3.699-5.77-7c3.71-2.479-3.72-6.62-5.79-7.43
			c-3.31-2.9-7.02-8.27-9.5-12.81c-2.89-5.37-2.06-10.73-3.3-16.11c-1.24-5.78-4.14-8.67-4.14-15.28c0-5.78,0.83-11.15,1.24-16.51
			l-0.82-0.83c-0.42-2.89-2.89-2.89-3.71-4.96c-1.24-2.89-0.83-2.89-1.24-5.77c-0.83-3.72-2.07-7.86-2.07-11.58
			c0.41-4.53,2.89-7.84,4.13-12.39c0.83-4.12,0.83-8.67,2.47-13.2c3.31-8.68,10.34-16.11,12.81-24.78c0.82-1.66-0.83-4.14,0.41-5.79
			c1.24-2.48,3.72-3.72,5.37-5.79c3.72-4.12,2.07-7.43,3.31-12.39c1.24-4.53,4.95-7.43,7.84-11.15c2.68-3.81,5.35-7.99,8.35-11.2
			c5.69-2.98,6.12-17.73,8.17-23.49c3.71-9.91,13.22-9.91,19.41-16.11c3.72-4.12,4.55-7.43,9.08-10.73
			c4.14-3.3,6.62-3.71,11.57-4.95c8.68-2.48,15.69-10.33,24.78-11.98c0.21-0.03,0.43-0.04,0.64-0.05c0.52-0.03,1.04-0.01,1.56,0.02
			c0.27,0.03,0.54,0.05,0.81,0.08c1.23,0.15,2.46,0.38,3.65,0.57c0.39,0.06,0.79,0.12,1.17,0.16l0.79,0.07
			c0.48,0.04,0.96,0.05,1.43,0.03c0.23,0,0.46-0.03,0.68-0.05c3.72-0.42,7.03-2.9,10.34-4.55c4.52-2.65,8.69-3.78,13.41-4.01
			c1.6-0.09,3.28-0.07,5.04,0.03c0.55,0.04,1.11,0.08,1.68,0.11c0.29,0.03,0.57,0.05,0.87,0.08c0.28,0.02,0.58,0.05,0.88,0.07
			c7.43,0.83,15.7,1.65,22.3,2.48c7.02,0.83,14.46,2.89,21.89,3.72l-3.13-0.79c0.07,0.02,0.13,0.03,0.2,0.03
			c0.13,0.03,0.26,0.04,0.39,0.04c0.45,0.04,0.91,0.05,1.351,0.01c3.529-0.21,7.25-2.31,10.689-3.01
			c0.851-0.16,1.59-0.28,2.271-0.36c0.08-0.01,0.16-0.02,0.239-0.03c0.011,0,0.011,0,0.021,0c0.25-0.04,0.5-0.05,0.729-0.07
			c0.48-0.02,0.921-0.03,1.351-0.01c2.85,0.14,4.79,1.25,8.479,2.95c3.721,1.65,7.841,5.36,11.971,6.6
			c0.239,0.09,0.489,0.15,0.75,0.21c0.17,0.05,0.33,0.08,0.489,0.12c0.221,0.04,0.46,0.08,0.681,0.12
			c0.06,0.01,0.109,0.02,0.16,0.02c0.3,0.05,0.58,0.09,0.88,0.12c0.359,0.03,0.72,0.06,1.08,0.08c2.699,0.16,5.649-0.06,8.05,0.1
			c0.13,0,0.25,0.01,0.359,0.03c0.12,0.01,0.24,0.02,0.36,0.03c6.5,0.91,17.51,3.87,27.21,4.2c1.53,0.07,3.04,0.05,4.49-0.05
			c6.3-0.38,11.54-2.36,13.86-7.45c0-0.39-0.721-3.65-1.16-4.42c6.06,3.34,9.37,9.82,15.89,11.85c6.45,2.15,11.05,2.75,15.93,6.94
			c-0.3-0.11-0.6-0.23-0.93-0.32l0.11,0.07l2.72,2.04l0.48,0.36c-0.681-0.73-1.351-1.38-2.021-1.97c6.44,2.67,6.54,7.73,8.08,13.53
			c2.479,7.85,7.02,5.37,13.22,8.27c1.24,0.82,1.24,2.88,2.48,3.29c0.06,0.03,0.12,0.05,0.2,0.08c0.109,0.02,0.229,0.05,0.369,0.06
			c0.061,0.01,0.12,0.01,0.2,0.02c0.11,0,0.221,0.02,0.34,0.02c0.32,0.02,0.67,0.01,1.021,0c0.11,0,0.21-0.02,0.32-0.02
			c0.1-0.01,0.21-0.01,0.31-0.02c0.21-0.01,0.4-0.04,0.57-0.05c0.069-0.01,0.14-0.01,0.199-0.01c0.11-0.01,0.211-0.03,0.301-0.04
			c0.05,0,0.08-0.01,0.12-0.01c0.06-0.01,0.1-0.01,0.119-0.01h0.07c2.46,2.46,2.87,3.71,2.05,7.42c-0.819,5.66-5.18,10.91,0.82,15
			c4.87,6.93,3.25,22.79,0.83,30.02c-2.87,9.82-9.78,20.04-9.11,30.67l-0.67-1.35c2.891,11.15,5.37,21.06,9.49,31.8
			c4.14,10.74,4.55,21.89,6.62,33.05l-0.83-0.83c3.31,16.51,17.75,28.08,27.26,40.88C714.96,483.17,718.68,491.02,716.2,498.04z"/>
		<g>
			<path d="M713.789,497.375c-2.733,7.54-13.433,9.038-18.347,14.997c1.179,0,2.356,0,3.535,0c-0.276-0.273-0.554-0.546-0.83-0.819
				c-1.159-1.145-3.09-0.878-3.927,0.506c-3.394,5.616-0.004,11.035,2.031,16.487c2.658,7.119-2.456,17.746-9.582,20.241
				c-6.74,2.359-25.95,3.089-17.639,14.935c0-0.841,0-1.683,0-2.523c-0.137,0.276-0.273,0.554-0.41,0.83
				c-0.539,1.091-0.376,2.106,0.392,3.029c10.27,12.354-9.496,24.521-11.384,36.808c-0.481,3.137,3.777,4.447,4.822,1.33
				c0.196-0.587,0.393-1.174,0.59-1.761c-1.607-0.443-3.215-0.887-4.822-1.33c-1.997,14.231-1.686,28.65-15.4,36.888
				c-4.152,2.493-8.83,4.13-13.178,6.252c-4.74,2.314-9.354,4.889-13.969,7.442c-9.522,5.269-19.034,10.556-29.327,14.192
				c0.812,1.394,1.622,2.786,2.433,4.179c0.113-0.11,0.227-0.22,0.34-0.33c2.007-1.948-0.649-5.551-3.029-3.927
				c-3.964,2.706-5.05,7.854-5.817,12.298c-1.121,6.489-1.249,13.152-1.274,19.722c-0.067,16.875-2.028,35.039,3.053,51.335
				c1.607-0.443,3.215-0.887,4.822-1.33c-0.688-1.928-1.376-3.854-2.07-5.78c-1.09-3.019-5.499-1.848-4.822,1.33
				c4.947,23.203,16.027,44.662,26.807,65.611c5.486,10.664,11.42,21.102,18.084,31.077c6.716,10.054,14.307,19.389,20.662,29.708
				c0.498-1.224,0.996-2.448,1.494-3.673c-114.487,45.01-245.921,33.078-350.157-32.327c-0.525-0.334-1.051-0.667-1.577-1
				c0.383,0.94,0.766,1.882,1.149,2.823c4.064-14.566,7.561-28.969,13.714-42.826c2.708-6.098,4.847-12.177,6.036-18.757
				c1.319-7.304,1.914-14.702,3.48-21.967c0.3-1.393-0.4-2.62-1.746-3.076c-0.413-0.14-0.827-0.279-1.24-0.42
				c0.612,0.804,1.224,1.607,1.835,2.411c0.034-5.815-3.456-10.682-3.382-16.604c0.087-7.063,5.278-13.742,8.515-19.742
				c2.941-5.453,6.247-10.941,8.485-16.726c2.283-5.899,0.422-11.963,6.847-15.53c8.396-4.662,8.127-14.152,13.092-21.519
				c5.106-7.577,16.556-9.732,19.603-18.965c-1.224,0.498-2.448,0.996-3.672,1.494c3.221,1.424,5.084-0.455,5.498-3.71
				c0.292-2.3,0.13-4.723,0.685-6.975c0.777-3.152,2.857-4.788,3.091-8.239c0.325-4.795,1.064-7.582,4.102-11.324
				c1.976-2.434,4.299-4.597,6.472-6.851c3.962-4.108,6.792-8.562,7.563-14.307c1.578-11.744-6.237-22.852-11.589-32.608
				c-2.988-5.448-3.96-10.983-6.103-16.7c-1.177-3.142-3.576-5.898-7.188-5.655c0.804,0.611,1.607,1.224,2.411,1.835
				c-1.596-8.358-7.709-13.713-13.873-18.888c-2.666-2.238,0.597-6.889-2.865-8.916c-0.481-0.243-0.991-0.4-1.528-0.473
				c-0.222-0.029-0.443-0.06-0.665-0.089c-0.935,0.12-1.022,0.064-0.259-0.167c-1.555-1.979-3.466-3.138-4.602-5.505
				c-0.13,1.01-0.261,2.02-0.391,3.029c2.624-2.361,1.808-5.188-0.36-7.539c-1.256-1.362-3.054-2.354-4.66-3.225
				c-3.255-1.764-5.355-5.276-7.359-8.284c-4.205-6.312-4.173-12.604-5.568-19.734c-0.54-2.76-1.763-5.344-2.771-7.951
				c-1.55-4.012-1.323-8.115-1.049-12.322c0.305-4.686,2.253-10.113-0.516-14.171c-1.364-1.999-3.249-3.119-3.948-5.585
				c-0.888-3.13-1.228-6.737-1.902-9.952c-1.479-7.043,3.295-12.991,4.171-19.837c1.083-8.465,4.369-14.714,8.78-21.879
				c2.606-4.233,6.559-10.003,6.137-15.218c-0.294-3.635,2.816-5.228,4.906-7.532c1.828-2.015,2.838-4.306,3.229-6.983
				c0.443-3.044,0.234-5.843,1.629-8.718c1.427-2.942,4.241-5.323,6.292-7.839c1.99-2.44,3.628-5.212,5.487-7.756
				c1.716-2.348,4.01-3.99,5.692-6.324c5.812-8.061,2.238-19.921,9.729-27.052c3.536-3.367,8.723-4.808,12.665-7.659
				c4.994-3.612,7.289-9.602,12.255-13.345c3.828-2.885,8.676-3.008,12.936-4.9c4.48-1.99,8.493-4.778,12.703-7.262
				c5.389-3.179,9.229-3.565,15.292-2.738c3.978,0.543,7.354-0.591,10.878-2.4c5.493-2.821,10.122-5.57,16.437-6.02
				c5.145-0.367,10.393,0.507,15.494,1.054c12.495,1.34,24.725,3.883,37.166,5.436c2.839,0.354,3.341-4.235,0.665-4.911
				c-1.044-0.263-2.087-0.527-3.13-0.79c-0.443,1.607-0.887,3.214-1.33,4.821c4.393,0.664,8.384-1.233,12.47-2.554
				c5.123-1.655,9.276,0.183,13.907,2.472c4.299,2.124,7.784,5.396,12.553,6.562c4.153,1.016,8.509,0.037,12.695,0.67
				c11.312,1.709,22.508,5.252,34.065,3.775c4.457-0.569,8.58-2.299,11.531-5.754c2.474-2.896,2.162-5.636,0.755-8.986
				c-1.225,0.941-2.449,1.882-3.673,2.823c4.92,2.975,8.349,7.743,13.274,10.729c5.716,3.465,12.628,3.326,18.039,7.669
				c0.811-1.393,1.621-2.786,2.433-4.178c-0.311-0.107-0.62-0.213-0.93-0.32c-2.779-0.958-4.233,3.1-1.927,4.569
				c1.154,0.735,2.214,1.649,3.311,2.47c2.334,1.748,4.952-1.96,3.029-3.926c-0.641-0.69-1.314-1.347-2.021-1.97
				c-1.01,1.309-2.02,2.618-3.029,3.926c6.253,2.958,5.115,8.578,7.672,13.988c2.084,4.409,5.363,5.682,9.893,6.652
				c4.194,0.898,5.072,4.971,9.607,4.971c0.647,0,1.295-0.107,1.939-0.16c-0.517,0.042-0.203,3.79-0.291,4.255
				c-0.328,1.741-0.82,3.4-1.356,5.086c-0.683,2.147-1.147,4.242-0.913,6.495c0.314,3.017,2.429,3.904,3.896,6.218
				c3.277,5.169,2.461,13.102,1.826,18.868c-1.525,13.864-11.403,25.497-11.001,39.687c1.553-0.42,3.105-0.841,4.659-1.262
				c-0.224-0.45-0.447-0.9-0.67-1.35c-1.292-2.602-5.264-0.751-4.57,1.926c2.778,10.727,5.578,21.419,9.49,31.8
				c3.998,10.606,4.653,21.981,6.62,33.05c1.394-0.811,2.786-1.622,4.179-2.432c-0.276-0.277-0.553-0.554-0.83-0.83
				c-1.833-1.833-4.71,0.043-4.179,2.432c2.332,10.474,8.536,18.999,15.351,27.051C703.87,473.321,717.479,484.624,713.789,497.375
				c-0.897,3.104,3.928,4.42,4.822,1.329c3.341-11.549-4.545-21.311-11.583-29.569c-8.53-10.009-18.084-19.609-21.037-32.88
				c-1.394,0.811-2.786,1.622-4.179,2.432c0.276,0.277,0.553,0.554,0.83,0.83c1.889,1.889,4.597-0.078,4.179-2.432
				c-1.974-11.099-2.718-22.385-6.62-33.05c-3.816-10.428-6.709-21.058-9.49-31.8c-1.523,0.642-3.047,1.284-4.57,1.926
				c0.224,0.45,0.447,0.9,0.67,1.35c1.117,2.251,4.728,1.154,4.659-1.262c-0.229-8.055,3.246-15.3,6.293-22.565
				c2.516-6,4.144-11.988,4.854-18.449c0.637-5.784,0.454-11.957-1.474-17.49c-0.882-2.529-4.259-4.969-4.51-7.377
				c-0.335-3.215,1.879-7.409,2.48-10.594c0.554-2.93-0.866-9.134-4.805-9.134c-0.641,0-1.298,0.12-1.939,0.16
				c-2.386,0.149-1.009-2.137-3.349-3.128c-2.244-0.951-4.468-1.568-6.851-2.073c-3.947-0.837-4.938-3.417-5.814-7.138
				c-1.32-5.605-3.172-10.005-8.635-12.589c-2.439-1.154-5.235,1.881-3.029,3.926c0.706,0.624,1.379,1.281,2.021,1.97
				c1.01-1.309,2.02-2.617,3.029-3.926c-1.097-0.821-2.156-1.735-3.311-2.47c-0.642,1.523-1.284,3.046-1.927,4.569
				c0.311,0.107,0.62,0.213,0.93,0.32c2.288,0.789,4.393-2.605,2.433-4.178c-4.672-3.75-9.806-5.342-15.457-7.075
				c-6.95-2.13-10.825-8.453-16.868-12.106c-1.717-1.038-4.557,0.718-3.673,2.823c1.591,3.784,1.044,4.582-2.586,6.805
				c-4.362,2.671-10.611,2.11-15.467,1.749c-9.334-0.694-18.381-4.106-27.749-4.117c-4.598-0.005-7.771-0.017-11.848-2.266
				c-4.188-2.31-7.94-5.037-12.444-6.788c-2.684-1.043-5.308-1.409-8.16-1.009c-4.279,0.6-9.527,3.901-13.57,3.29
				c-3.103-0.469-4.529,4.014-1.33,4.821c1.044,0.263,2.087,0.527,3.13,0.79c0.222-1.637,0.443-3.274,0.665-4.911
				c-7.351-0.917-14.544-2.754-21.89-3.72c-7.414-0.974-14.869-1.657-22.3-2.48c-5.601-0.62-11.221-0.464-16.646,1.122
				c-6.089,1.781-11.5,7.718-18.079,7.133c-5.568-0.496-9.033-1.21-14.389,1.033c-5.617,2.352-10.434,6.243-15.876,8.943
				c-5.292,2.624-10.688,2.8-15.571,6.48c-4.843,3.65-7.052,9.541-11.91,13.055c-3.71,2.684-8.228,4.03-11.781,6.973
				c-3.784,3.134-5.839,7.091-6.871,11.839c-1.005,4.625-1.59,9.305-3.057,13.823c-0.778,2.395-1.994,3.286-3.548,5.031
				c-2.467,2.77-4.617,5.753-6.728,8.8c-3.419,4.937-8.111,8.862-10.105,14.653c-0.831,2.413-0.532,5.185-0.895,7.677
				c-0.529,3.637-4.218,5.7-6.428,8.253c-1.315,1.52-1.883,3.222-1.89,5.187c-0.012,3.737-1.026,6.314-2.777,9.647
				c-3.204,6.098-7.288,11.57-9.91,17.985c-2.473,6.048-1.978,12.697-4.594,18.805c-2.211,5.162-2.235,9.334-1.099,14.746
				c0.722,3.438,0.793,10.02,3.577,12.707c1.438,1.389,2.222,3.104,3.589,4.489c0.141,0.143-1.243,8.428-1.332,9.5
				c-0.48,5.822,0.022,10.728,2.207,16.126c2.207,5.452,2.276,11.055,3.339,16.755c0.971,5.213,4.589,10.244,7.836,14.29
				c1.409,1.755,2.997,4.168,5.131,5.089c0.523,0.226,5.084,2.931,4.719,3.26c-0.878,0.79-0.862,2.048-0.391,3.029
				c1.255,2.615,4.154,6.425,6.667,7.897c1.561,0.914,1.649-0.66,1.499,1.365c-0.134,1.805,0.367,3.232,1.089,4.85
				c1.083,2.428,3.779,3.652,5.648,5.36c3.964,3.624,7.36,8.007,8.385,13.371c0.196,1.027,1.376,1.904,2.411,1.835
				c3.217-0.217,3.872,7.004,4.479,9.455c1.02,4.118,3.119,7.919,5.146,11.614c4.973,9.064,12.223,19.276,9.992,30.163
				c-1.866,9.102-12.196,14.263-16.337,22.321c-0.821,1.598-1.596,3.664-1.603,5.461c-0.008,2.178,0.384,4.26-0.789,6.295
				c-0.55,0.953-1.273,1.797-1.642,2.852c-0.506,1.447-0.736,2.787-0.874,4.311c-0.097,1.07-0.132,2.148-0.2,3.221
				c-0.029,0.344-0.059,0.688-0.087,1.032c-0.6,1.557,0.036,1.666,1.907,0.326c-1.514-0.669-3.126-0.161-3.672,1.494
				c-1.467,4.445-7.138,7.525-10.801,9.967c-3.824,2.547-7.072,5.684-9.458,9.618c-2.205,3.634-3.41,7.928-4.808,11.907
				c-1.959,5.58-7.606,5.785-10.581,10.352c-2.774,4.26-2.558,9.411-3.895,14.171c-1.019,3.627-3.622,7.318-5.375,10.647
				c-1.726,3.277-3.494,6.533-5.262,9.788c-2.716,4.998-5.935,9.861-6.406,15.688c-0.249,3.078-0.098,5.929,0.657,8.924
				c0.811,3.217,2.61,5.939,2.59,9.354c-0.007,1.16,0.778,2.053,1.835,2.411c0.413,0.14,0.827,0.279,1.24,0.42
				c-0.582-1.025-1.164-2.051-1.746-3.076c-1.565,7.259-2.278,14.647-3.48,21.968c-1.205,7.331-3.928,13.979-6.941,20.729
				c-5.854,13.111-8.961,27.064-12.808,40.854c-0.31,1.109,0.201,2.222,1.149,2.823c101.796,64.58,230.22,78.72,343.765,38.291
				c3.968-1.413,7.902-2.918,11.822-4.458c1.451-0.571,2.412-2.183,1.494-3.673c-6.049-9.819-13.112-18.786-19.667-28.243
				c-6.487-9.358-12.105-19.311-17.425-29.366c-11.34-21.438-22.868-43.719-27.957-67.594c-1.607,0.443-3.215,0.887-4.822,1.33
				c0.695,1.925,1.384,3.852,2.07,5.78c1.068,2.999,5.792,1.78,4.822-1.33c-4.61-14.782-2.688-30.79-2.857-46.053
				c-0.064-5.848,0.019-11.697,0.5-17.527c0.309-3.744,0.534-11.694,4.098-14.126c-1.01-1.31-2.02-2.618-3.029-3.927
				c-0.113,0.11-0.227,0.22-0.34,0.33c-1.73,1.681,0.022,5.029,2.433,4.179c10.701-3.781,20.62-9.212,30.521-14.697
				c5.127-2.841,10.272-5.639,15.541-8.21c4.65-2.271,9.467-4.043,13.827-6.871c13.448-8.721,13.474-24.223,15.477-38.488
				c0.438-3.125-3.771-4.464-4.822-1.33c-0.196,0.587-0.393,1.174-0.59,1.761c1.607,0.443,3.215,0.887,4.822,1.33
				c1.292-8.416,8.208-14.522,12.227-21.687c3.94-7.024,2.932-13.897-2.13-19.986c0.131,1.01,0.261,2.02,0.392,3.029
				c0.137-0.276,0.273-0.554,0.41-0.83c0.377-0.764,0.527-1.771,0-2.523c-1.976-2.814-1.037-3.629,1.931-4.547
				c2.18-0.675,4.478-1.096,6.701-1.604c5.148-1.177,9.698-2.127,13.311-6.261c3.772-4.319,6.33-9.725,6.664-15.448
				c0.341-5.863-6.52-13.623-3.417-18.757c-1.31,0.169-2.618,0.338-3.927,0.506c0.276,0.273,0.553,0.547,0.83,0.819
				c0.899,0.888,2.663,1.058,3.535,0c5.787-7.017,16.258-7.893,19.634-17.203C719.713,495.666,714.88,494.369,713.789,497.375z"/>
		</g>
	</g>
	<g>
		<path d="M353.254,511.999c-0.148,0.024-0.31,0.05-0.483,0.073v-0.012C352.944,512.035,353.105,512.011,353.254,511.999z"/>
		<g>
			<path d="M352.589,509.588c-0.161,0.026-0.322,0.051-0.483,0.074c1.055,0.804,2.11,1.607,3.165,2.41c0-0.004,0-0.008,0-0.012
				c-0.612,0.804-1.224,1.607-1.835,2.41c-0.385,0.047-0.445,0.057-0.181,0.028c1.355-0.138,2.5-1.033,2.5-2.5
				c0-1.259-1.142-2.638-2.5-2.5c-0.384,0.039-0.766,0.095-1.148,0.151c-1.082,0.156-1.835,1.403-1.835,2.41
				c0,0.004,0,0.008,0,0.012c0,0.661,0.266,1.302,0.732,1.768c0.69,0.691,1.518,0.775,2.432,0.644
				c0.162-0.023,0.322-0.048,0.483-0.073c1.347-0.217,2.077-1.872,1.746-3.076C355.274,509.914,353.934,509.373,352.589,509.588z"/>
		</g>
	</g>
	<g>
		<path d="M362.472,316.943l0.632-0.619c-0.198,0.198-0.383,0.397-0.582,0.595c-0.05,0.062-0.111,0.112-0.161,0.174
			c-0.025,0.024-0.062,0.037-0.087,0.049L362.472,316.943z"/>
		<g>
			<path d="M364.239,318.711c0.211-0.206,0.421-0.413,0.632-0.619c-1.178-1.178-2.357-2.357-3.535-3.535
				c-0.117,0.118-0.233,0.237-0.349,0.357c-0.077,0.08-0.155,0.159-0.233,0.238c-0.182,0.185-0.096,0.129,0.258-0.168
				c1.01,1.309,2.02,2.618,3.029,3.926C364.107,318.844,364.173,318.777,364.239,318.711c0.962-0.964,0.964-2.571,0-3.535
				c-0.962-0.962-2.573-0.964-3.535,0c-0.066,0.066-0.132,0.132-0.198,0.199c-0.793,0.794-0.959,2.059-0.391,3.029
				c0.695,1.186,2.235,1.57,3.42,0.897c0.524-0.297,0.917-0.785,1.336-1.209c0.957-0.969,0.968-2.567,0-3.535
				c-0.97-0.971-2.562-0.954-3.535,0c-0.211,0.206-0.421,0.413-0.632,0.619c-0.973,0.953-0.956,2.58,0,3.535
				C361.674,319.682,363.267,319.665,364.239,318.711z"/>
		</g>
	</g>
	<g>
		<path d="M369.968,640.52c-0.186,0.036-0.421-0.062-0.694-0.31c0.012-0.039,0.012-0.063,0.024-0.1
			C369.559,640.37,369.782,640.507,369.968,640.52z"/>
		<g>
			<path d="M369.968,638.02c0.392-0.027,0.787,0.183,1.074,0.423c0.214,0.811,0.429,1.621,0.643,2.433
				c0.008-0.033,0.016-0.066,0.024-0.1c-1.393,0.367-2.786,0.735-4.178,1.103c0.489,0.461,1.089,0.934,1.772,1.053
				c1.341,0.232,2.688-0.339,3.075-1.746c0.334-1.217-0.402-2.843-1.746-3.076c-0.231-0.047-0.134,0,0.291,0.141
				c0.31,0.257,0.357,0.288,0.143,0.094c-1.328-1.249-3.716-0.781-4.178,1.103c-0.008,0.033-0.016,0.066-0.024,0.1
				c-0.199,0.812-0.038,1.864,0.643,2.433c0.701,0.585,1.5,1.109,2.461,1.042c1.359-0.095,2.5-1.065,2.5-2.5
				C372.468,639.229,371.329,637.925,369.968,638.02z"/>
		</g>
	</g>
	<g>
		<path d="M370.835,538.477c-0.099,0.012-0.198,0.024-0.298,0.037v-0.013C370.637,538.488,370.736,538.477,370.835,538.477z"/>
		<g>
			<path d="M370.835,535.977c-0.099,0.012-0.199,0.024-0.298,0.037c0.833,0.834,1.667,1.666,2.5,2.5c0-0.004,0-0.008,0-0.013
				c-0.833,0.833-1.667,1.667-2.5,2.5c0.099-0.015,0.198-0.022,0.298-0.024c1.36-0.07,2.5-1.084,2.5-2.5
				C373.335,537.166,372.197,535.906,370.835,535.977c-0.1,0.002-0.199,0.01-0.298,0.024c-1.354,0.156-2.5,1.019-2.5,2.5
				c0,0.005,0,0.009,0,0.013c0,1.232,1.145,2.672,2.5,2.5c0.099-0.013,0.199-0.025,0.298-0.037c0.692-0.087,1.254-0.219,1.768-0.732
				c0.467-0.467,0.732-1.107,0.732-1.768C373.335,537.242,372.19,535.807,370.835,535.977z"/>
		</g>
	</g>
	<g>
		<path d="M443.205,250.608c-0.384-0.037-0.781-0.099-1.177-0.162c-1.189-0.186-2.416-0.421-3.643-0.569
			c1.375,0.136,2.726,0.421,4.039,0.619C442.684,250.534,442.944,250.571,443.205,250.608z"/>
		<g>
			<path d="M443.205,248.108c-0.474-0.052-1.274-0.196-1.956-0.31c-0.952-0.16-1.906-0.298-2.864-0.421c0,1.667,0,3.333,0,5
				c1.393,0.151,2.769,0.443,4.155,0.642c1.348,0.193,2.68-0.309,3.075-1.746c0.327-1.187-0.395-2.882-1.746-3.075
				c-1.831-0.262-3.645-0.621-5.484-0.82c-1.357-0.147-2.5,1.249-2.5,2.5c0,1.494,1.148,2.327,2.5,2.5
				c1.612,0.206,3.203,0.552,4.82,0.731c1.357,0.15,2.5-1.251,2.5-2.5C445.705,249.132,444.559,248.258,443.205,248.108z"/>
		</g>
	</g>
	<g>
		<path d="M519.974,247.87c-0.199,0-0.397-0.025-0.596-0.075l-0.174-0.037C519.465,247.808,519.712,247.845,519.974,247.87z"/>
		<g>
			<path d="M519.974,245.37c-0.544-0.017,0.607,0.133,0.069,0.015c-0.059-0.013-0.116-0.025-0.174-0.037
				c-0.443,1.607-0.887,3.214-1.33,4.821c0.476,0.086,0.955,0.149,1.435,0.201c1.357,0.147,2.5-1.248,2.5-2.5
				C522.474,246.396,521.328,245.517,519.974,245.37c-0.662-0.072,0.554,0.097-0.104-0.022c-1.34-0.242-2.69,0.345-3.076,1.746
				c-0.345,1.255,0.414,2.791,1.746,3.075c0.473,0.101,0.951,0.186,1.435,0.201c1.362,0.042,2.5-1.169,2.5-2.5
				C522.474,246.475,521.335,245.413,519.974,245.37z"/>
		</g>
	</g>
	<g>
		<path d="M560.03,254.536c-0.298-0.024-0.583-0.062-0.882-0.111c-0.048,0-0.099-0.012-0.16-0.025
			c-0.223-0.037-0.458-0.075-0.682-0.124c-0.16-0.037-0.321-0.062-0.484-0.111c-0.258-0.062-0.508-0.124-0.754-0.21
			c-4.126-1.239-8.252-4.956-11.97-6.604c-3.691-1.697-5.625-2.812-8.474-2.948c2.923,0.099,4.855,1.226,8.598,2.948
			c3.717,1.648,7.855,5.365,11.981,6.604c0.57,0.186,1.202,0.334,1.834,0.446c0.012,0,0.012,0,0.024,0
			C559.386,254.449,559.707,254.486,560.03,254.536z"/>
		<g>
			<path d="M560.03,252.036c-4.196-0.53-7.649-3.314-11.136-5.489c-3.644-2.274-7.973-4.216-12.27-4.645c0,1.667,0,3.333,0,5
				c8.515,0.739,14.32,8.86,22.74,10.045c3.152,0.444,4.512-4.374,1.33-4.821c-8.773-1.235-14.939-9.431-24.07-10.224
				c-3.227-0.28-3.166,4.684,0,5c8.699,0.869,14.673,9.032,23.405,10.134C563.224,257.439,563.185,252.434,560.03,252.036z"/>
		</g>
	</g>
	<g>
		<path d="M597.087,258.984c-9.701-0.334-20.703-3.296-27.208-4.2c-0.234-0.025-0.471-0.05-0.719-0.062
			c0.298,0.012,0.57,0.037,0.843,0.062C576.482,255.676,587.424,258.625,597.087,258.984z"/>
		<g>
			<path d="M597.087,256.484c-9.49-0.461-18.523-3.451-27.927-4.262c0,1.667,0,3.333,0,5c9.386,0.69,18.455,3.77,27.927,4.262
				C600.311,261.651,600.295,256.651,597.087,256.484c-9.476-0.493-18.527-3.571-27.927-4.262c-3.229-0.238-3.179,4.726,0,5
				c9.393,0.811,18.438,3.801,27.927,4.262C600.312,261.641,600.296,256.64,597.087,256.484z"/>
		</g>
	</g>
	<g>
		<path d="M670.807,291.259c-0.137-0.012-0.26-0.037-0.371-0.062c-0.075-0.024-0.136-0.05-0.198-0.074
			c-1.239-0.409-1.239-2.478-2.478-3.296c-6.195-2.899-10.743-0.421-13.221-8.264c-1.536-5.799-1.636-10.866-8.077-13.529
			c0.668,0.582,1.338,1.239,2.018,1.97l-0.481-0.359l-2.715-2.044l-0.111-0.075c0.323,0.1,0.633,0.211,0.93,0.323
			c-4.881-4.188-9.478-4.783-15.934-6.938c-6.516-2.033-9.824-8.512-15.884-11.845c-0.036-0.05-0.062-0.099-0.087-0.125
			c6.194,3.296,9.503,9.912,16.106,11.969c6.519,2.168,11.127,2.763,16.071,7.037c6.64,2.64,6.727,7.756,8.3,13.617
			c2.478,7.843,7.013,5.365,13.208,8.264c1.239,0.818,1.239,2.887,2.478,3.296C670.472,291.185,670.622,291.223,670.807,291.259z"/>
		<g>
			<path d="M671.472,288.849c-0.556-0.092-0.674-1.402-1.209-1.986c-1.001-1.093-1.684-1.38-3.056-1.958
				c-3.202-1.35-7.318-0.77-9.409-3.979c-1.979-3.038-1.69-7.297-3.299-10.564c-1.497-3.041-3.725-5.046-6.775-6.486
				c-2.438-1.15-5.24,1.882-3.029,3.926c0.707,0.622,1.379,1.278,2.018,1.97c1.01-1.309,2.02-2.618,3.029-3.926
				c-1.102-0.822-2.167-1.713-3.308-2.479c-0.642,1.523-1.284,3.046-1.927,4.569c0.311,0.107,0.62,0.215,0.93,0.323
				c2.289,0.794,4.391-2.608,2.433-4.178c-4.673-3.75-9.809-5.338-15.46-7.072c-3.957-1.214-6.687-3.472-9.613-6.29
				c-1.037-0.999-2.086-1.972-3.169-2.92c-0.488-0.428-3.088-1.857-3.271-2.12c-1.14,1.14-2.28,2.28-3.42,3.42
				c5.58,3.255,9.234,9.476,15.425,11.751c3.912,1.438,8.028,2.297,11.837,4.013c3.019,1.359,7.789,4.144,9.578,6.968
				c3.26,5.146,1.655,11.756,7.573,15.354c2.177,1.323,5.072,1.481,7.481,2.144c2.403,0.661,2.771,3.569,5.312,4.342
				C673.235,294.611,674.547,289.784,671.472,288.849c-0.31-0.094-0.74-1.61-1.085-1.986c-1.002-1.093-1.685-1.38-3.056-1.958
				c-2.669-1.125-6.188-0.83-8.475-2.738c-2.284-1.907-2.495-6.462-3.254-9.183c-0.733-2.626-2.069-4.888-4.015-6.783
				c-4.586-4.467-11.521-6.93-17.509-8.724c-7.874-2.359-11.792-8.712-18.62-12.695c-2.061-1.202-4.904,1.294-3.42,3.42
				c1.434,2.054,4.315,3.316,6.188,5.06c2.24,2.084,4.377,4.178,6.873,5.962c5.792,4.14,13.514,3.804,19.233,8.392
				c0.811-1.393,1.621-2.786,2.433-4.178c-0.311-0.107-0.62-0.215-0.93-0.323c-2.812-0.976-4.169,3.064-1.927,4.569
				c1.141,0.766,2.206,1.656,3.308,2.479c2.339,1.746,4.946-1.958,3.029-3.926c-0.638-0.692-1.311-1.349-2.018-1.97
				c-1.01,1.309-2.02,2.618-3.029,3.926c7.739,3.652,4.676,13.081,10.723,18.123c2.132,1.777,5.05,2.1,7.656,2.703
				c3.093,0.716,3.556,4.153,6.562,4.651C673.295,294.193,674.646,289.375,671.472,288.849z"/>
		</g>
	</g>
	<g>
		<path d="M660.87,600.054c-2.899,19.403-0.831,32.623-21.894,41.705c-17.754,7.435-33.861,19.415-52.037,25.61l0.075-0.075
			c18.088-6.207,34.147-18.127,51.826-25.535c20.803-8.971,19.044-21.968,21.794-40.986L660.87,600.054z"/>
		<g>
			<path d="M658.459,599.389c-2.082,14.379-1.562,29.194-15.444,37.568c-4.177,2.519-8.892,4.163-13.27,6.3
				c-4.759,2.323-9.39,4.908-14.021,7.471c-9.561,5.291-19.11,10.597-29.45,14.23c0.812,1.394,1.622,2.786,2.433,4.179
				c0.885-0.885,4.718-1.596,6.063-2.175c2.676-1.151,5.312-2.373,7.927-3.655c5.263-2.579,10.376-5.465,15.501-8.305
				c5.127-2.842,10.272-5.639,15.541-8.21c5.034-2.458,10.229-4.349,14.846-7.584c5.578-3.91,9.167-9.462,11.121-15.915
				c2.208-7.294,1.234-15.427,3.575-22.574C664.287,597.646,659.458,596.339,658.459,599.389
				c-2.105,6.434-1.572,13.927-3.055,20.576c-1.69,7.578-5.965,13.051-12.584,17.025c-4.152,2.494-8.831,4.13-13.178,6.252
				c-5.269,2.572-10.384,5.456-15.51,8.296c-5.126,2.841-10.268,5.643-15.531,8.222c-2.938,1.439-5.94,2.735-8.984,3.935
				c-1.395,0.549-3.344,0.806-4.445,1.907c-1.695,1.694,0.001,5.033,2.433,4.179c10.748-3.778,20.705-9.228,30.644-14.735
				c5.146-2.852,10.312-5.66,15.601-8.242c4.688-2.288,9.542-4.072,13.932-6.935c13.604-8.868,13.413-24.737,15.501-39.149
				C663.737,597.565,658.92,596.208,658.459,599.389z"/>
		</g>
	</g>
	<g>
		<path d="M678.204,343.582c-2.887,9.912-9.912,20.233-9.082,30.975l-0.148-0.31c-0.67-10.631,6.231-20.853,9.107-30.666
			c2.416-7.235,4.038-23.095-0.831-30.021c-5.996-4.089-1.636-9.342-0.817-15.004c0.817-3.705,0.408-4.956-2.058-7.422
			c0.075-0.012,0.124-0.012,0.124-0.012c2.478,2.478,2.887,3.717,2.057,7.434c-0.792,5.575-5.03,10.754,0.559,14.818
			c0.087,0.075,0.173,0.136,0.259,0.186c0.038,0.049,0.075,0.099,0.112,0.161C682.23,320.723,680.595,336.396,678.204,343.582z"/>
		<g>
			<path d="M675.793,342.917c-3.275,10.553-9.647,20.223-9.171,31.64c1.553-0.42,3.105-0.841,4.659-1.262
				c-1.105-2.305,1.392-8.498,2.191-10.944c1.523-4.661,3.694-9.104,5.492-13.661c2.639-6.689,3.816-13.75,3.94-20.922
				c0.056-3.286-0.324-6.584-1.057-9.784c-0.308-1.344-0.856-2.598-1.394-3.859c-0.911-2.145-3.572-3.378-3.818-5.755
				c-0.372-3.589,2.245-7.63,2.568-11.26c0.293-3.281-0.854-5.392-3.062-7.741c-0.589,1.422-1.179,2.845-1.768,4.268
				c0.145-0.014-0.601,6.055-0.852,7.008c-0.52,1.973-1.324,3.852-1.581,5.889c-0.208,1.645-0.257,3.314,0.457,4.858
				c0.523,1.133,0.978,1.718,1.747,2.713c-0.301-0.39,2.57,2.874,1.18,0.88C680.361,322.208,678.241,335.112,675.793,342.917
				c-0.967,3.085,3.86,4.395,4.822,1.329c2.969-9.466,4.141-21.787-0.432-30.905c-1.1-2.191-3.34-2.616-3.397-5.574
				c-0.061-3.131,1.864-6.889,2.458-9.997c0.521-2.724-0.91-9.524-4.869-9.134c-2.133,0.21-3.356,2.577-1.768,4.268
				c4.963,5.281-3.628,12.783-0.184,18.913c1.81,3.22,4.005,4.879,4.878,8.698c0.94,4.109,0.68,8.558,0.314,12.72
				c-0.674,7.666-3.632,14.638-6.587,21.655c-2.24,5.318-6.852,15.121-4.066,20.93c1.083,2.258,4.76,1.149,4.659-1.262
				c-0.453-10.867,5.87-20.251,8.993-30.311C681.573,341.159,676.746,339.848,675.793,342.917z"/>
		</g>
	</g>
	<g>
		<path d="M677.795,313.846c-0.147-0.086-0.285-0.186-0.422-0.285c-0.135-0.198-0.272-0.372-0.408-0.545L677.795,313.846z"/>
		<g>
			<path d="M679.057,311.688c-0.145-0.09-0.283-0.186-0.422-0.285c0.299,0.299,0.598,0.598,0.896,0.897
				c-0.253-0.36-0.527-0.705-0.799-1.051c-1.179,1.178-2.356,2.357-3.535,3.535c0.276,0.277,0.553,0.554,0.83,0.83
				c0.963,0.963,2.572,0.963,3.535,0c0.963-0.963,0.963-2.572,0-3.535c-0.276-0.277-0.553-0.554-0.83-0.83
				c-0.963-0.963-2.572-0.963-3.535,0c-0.467,0.466-0.732,1.107-0.732,1.768c0,0.727,0.304,1.219,0.732,1.768
				c-0.595-0.761,0.535,0.673,0.408,0.545c0.25,0.25,0.618,0.482,0.928,0.676c1.156,0.723,2.747,0.252,3.42-0.897
				C680.657,313.906,680.21,312.408,679.057,311.688z"/>
		</g>
	</g>
</g>
<path fill="#ED1C24" stroke="#000000" stroke-width="5" stroke-miterlimit="10" d="M645.9,302.44c-0.08,0.01-0.17,0.01-0.25,0.02
	c0.01-0.01,0.029-0.01,0.039-0.01C645.76,302.45,645.83,302.44,645.9,302.44z"/>
</svg>
